<mxfile host="app.diagrams.net" modified="2021-10-09T05:29:53.042Z" agent="5.0 (Windows NT 10.0; Win64; x64) AppleWebKit/537.36 (KHTML, like Gecko) Chrome/94.0.4606.71 Safari/537.36" etag="wR2IkDIJbtzWaZ32kTDc" version="15.5.0" type="github">
  <diagram id="1dRo5ZtdfTXRHGiEh3tT" name="Page-1">
    <mxGraphModel dx="1422" dy="762" grid="1" gridSize="10" guides="1" tooltips="1" connect="1" arrows="1" fold="1" page="1" pageScale="1" pageWidth="827" pageHeight="1169" math="0" shadow="0">
      <root>
        <mxCell id="0" />
        <mxCell id="1" parent="0" />
        <mxCell id="vT0mGc1bMiAUVa-cbs3g-24" style="edgeStyle=orthogonalEdgeStyle;rounded=0;orthogonalLoop=1;jettySize=auto;html=1;exitX=1;exitY=1;exitDx=0;exitDy=0;exitPerimeter=0;entryX=0;entryY=0.5;entryDx=0;entryDy=0;" edge="1" parent="1" source="ScJCoEOn4eRMB-LrRiTC-1" target="vT0mGc1bMiAUVa-cbs3g-7">
          <mxGeometry relative="1" as="geometry">
            <Array as="points">
              <mxPoint x="170" y="290" />
              <mxPoint x="170" y="370" />
            </Array>
          </mxGeometry>
        </mxCell>
        <mxCell id="vT0mGc1bMiAUVa-cbs3g-25" style="edgeStyle=orthogonalEdgeStyle;rounded=0;orthogonalLoop=1;jettySize=auto;html=1;exitX=1;exitY=1;exitDx=0;exitDy=0;exitPerimeter=0;entryX=0;entryY=0.5;entryDx=0;entryDy=0;" edge="1" parent="1" source="ScJCoEOn4eRMB-LrRiTC-1" target="vT0mGc1bMiAUVa-cbs3g-6">
          <mxGeometry relative="1" as="geometry">
            <Array as="points">
              <mxPoint x="170" y="290" />
              <mxPoint x="170" y="270" />
            </Array>
          </mxGeometry>
        </mxCell>
        <mxCell id="ScJCoEOn4eRMB-LrRiTC-1" value="人&lt;br&gt;" style="shape=umlActor;verticalLabelPosition=bottom;verticalAlign=top;html=1;outlineConnect=0;" parent="1" vertex="1">
          <mxGeometry x="110" y="250" width="30" height="40" as="geometry" />
        </mxCell>
        <mxCell id="ScJCoEOn4eRMB-LrRiTC-2" value="人在自然世界里是怎么表示的？也就是，我们是如何去辨识“人”这个实体，并与之形成相互作用的关系？&lt;br&gt;首先：我们得知道它要具备眼睛、鼻子、耳朵、嘴。。。这类我们常规经验印象里必须具备的基本轮廓，&lt;br&gt;&lt;span style=&quot;white-space: pre&quot;&gt;	&lt;/span&gt;然后，它的行为得让我们可以去理解。最后它最好能表现出可爱的一面。最后我们才说哦，它原来是他（她）&lt;br&gt;随后，我们对他（她）的逐渐认识，知道了他（她）的姓名、年龄、性别、喜好、读几年级、学习成绩好与否。。。" style="text;html=1;align=left;verticalAlign=middle;resizable=0;points=[];autosize=1;strokeColor=none;fillColor=none;" parent="1" vertex="1">
          <mxGeometry x="70" y="45" width="630" height="60" as="geometry" />
        </mxCell>
        <mxCell id="vT0mGc1bMiAUVa-cbs3g-2" value="" style="edgeStyle=elbowEdgeStyle;elbow=horizontal;endArrow=classic;html=1;rounded=0;exitX=1;exitY=1;exitDx=0;exitDy=0;exitPerimeter=0;entryX=0;entryY=0.5;entryDx=0;entryDy=0;" edge="1" parent="1" source="ScJCoEOn4eRMB-LrRiTC-1" target="vT0mGc1bMiAUVa-cbs3g-4">
          <mxGeometry width="50" height="50" relative="1" as="geometry">
            <mxPoint x="160" y="310" as="sourcePoint" />
            <mxPoint x="190" y="210" as="targetPoint" />
            <Array as="points">
              <mxPoint x="170" y="240" />
              <mxPoint x="165" y="270" />
            </Array>
          </mxGeometry>
        </mxCell>
        <mxCell id="vT0mGc1bMiAUVa-cbs3g-9" value="" style="edgeStyle=orthogonalEdgeStyle;rounded=0;orthogonalLoop=1;jettySize=auto;html=1;entryX=0;entryY=0.5;entryDx=0;entryDy=0;" edge="1" parent="1" source="vT0mGc1bMiAUVa-cbs3g-4" target="vT0mGc1bMiAUVa-cbs3g-10">
          <mxGeometry relative="1" as="geometry">
            <mxPoint x="280" y="210" as="targetPoint" />
          </mxGeometry>
        </mxCell>
        <mxCell id="vT0mGc1bMiAUVa-cbs3g-12" style="edgeStyle=orthogonalEdgeStyle;rounded=0;orthogonalLoop=1;jettySize=auto;html=1;exitX=1;exitY=0.5;exitDx=0;exitDy=0;" edge="1" parent="1" source="vT0mGc1bMiAUVa-cbs3g-4" target="vT0mGc1bMiAUVa-cbs3g-11">
          <mxGeometry relative="1" as="geometry" />
        </mxCell>
        <mxCell id="vT0mGc1bMiAUVa-cbs3g-4" value="姓名" style="rounded=1;whiteSpace=wrap;html=1;align=center;" vertex="1" parent="1">
          <mxGeometry x="200" y="200" width="40" height="20" as="geometry" />
        </mxCell>
        <mxCell id="vT0mGc1bMiAUVa-cbs3g-19" style="edgeStyle=orthogonalEdgeStyle;rounded=0;orthogonalLoop=1;jettySize=auto;html=1;exitX=1;exitY=0.5;exitDx=0;exitDy=0;entryX=0;entryY=0.5;entryDx=0;entryDy=0;" edge="1" parent="1" source="vT0mGc1bMiAUVa-cbs3g-6" target="vT0mGc1bMiAUVa-cbs3g-13">
          <mxGeometry relative="1" as="geometry" />
        </mxCell>
        <mxCell id="vT0mGc1bMiAUVa-cbs3g-20" style="edgeStyle=orthogonalEdgeStyle;rounded=0;orthogonalLoop=1;jettySize=auto;html=1;exitX=1;exitY=0.5;exitDx=0;exitDy=0;entryX=0;entryY=0.5;entryDx=0;entryDy=0;" edge="1" parent="1" source="vT0mGc1bMiAUVa-cbs3g-6" target="vT0mGc1bMiAUVa-cbs3g-15">
          <mxGeometry relative="1" as="geometry" />
        </mxCell>
        <mxCell id="vT0mGc1bMiAUVa-cbs3g-6" value="年龄" style="rounded=1;whiteSpace=wrap;html=1;align=center;" vertex="1" parent="1">
          <mxGeometry x="200" y="260" width="40" height="20" as="geometry" />
        </mxCell>
        <mxCell id="vT0mGc1bMiAUVa-cbs3g-22" style="edgeStyle=orthogonalEdgeStyle;rounded=0;orthogonalLoop=1;jettySize=auto;html=1;exitX=1;exitY=0.5;exitDx=0;exitDy=0;entryX=0;entryY=0.5;entryDx=0;entryDy=0;" edge="1" parent="1" source="vT0mGc1bMiAUVa-cbs3g-7" target="vT0mGc1bMiAUVa-cbs3g-18">
          <mxGeometry relative="1" as="geometry" />
        </mxCell>
        <mxCell id="vT0mGc1bMiAUVa-cbs3g-23" style="edgeStyle=orthogonalEdgeStyle;rounded=0;orthogonalLoop=1;jettySize=auto;html=1;exitX=1;exitY=0.5;exitDx=0;exitDy=0;entryX=0;entryY=0.5;entryDx=0;entryDy=0;" edge="1" parent="1" source="vT0mGc1bMiAUVa-cbs3g-7" target="vT0mGc1bMiAUVa-cbs3g-17">
          <mxGeometry relative="1" as="geometry" />
        </mxCell>
        <mxCell id="vT0mGc1bMiAUVa-cbs3g-7" value="性别" style="rounded=1;whiteSpace=wrap;html=1;align=center;" vertex="1" parent="1">
          <mxGeometry x="200" y="360" width="40" height="20" as="geometry" />
        </mxCell>
        <mxCell id="vT0mGc1bMiAUVa-cbs3g-10" value="姓" style="rounded=1;whiteSpace=wrap;html=1;align=center;" vertex="1" parent="1">
          <mxGeometry x="290" y="160" width="40" height="20" as="geometry" />
        </mxCell>
        <mxCell id="vT0mGc1bMiAUVa-cbs3g-11" value="名" style="rounded=1;whiteSpace=wrap;html=1;align=center;" vertex="1" parent="1">
          <mxGeometry x="290" y="180" width="40" height="20" as="geometry" />
        </mxCell>
        <mxCell id="vT0mGc1bMiAUVa-cbs3g-13" value="1岁" style="rounded=1;whiteSpace=wrap;html=1;align=center;" vertex="1" parent="1">
          <mxGeometry x="290" y="210" width="40" height="20" as="geometry" />
        </mxCell>
        <mxCell id="vT0mGc1bMiAUVa-cbs3g-14" value="2岁" style="rounded=1;whiteSpace=wrap;html=1;align=center;" vertex="1" parent="1">
          <mxGeometry x="290" y="230" width="40" height="20" as="geometry" />
        </mxCell>
        <mxCell id="vT0mGc1bMiAUVa-cbs3g-15" value="极限岁" style="rounded=1;whiteSpace=wrap;html=1;align=left;" vertex="1" parent="1">
          <mxGeometry x="290" y="290" width="40" height="20" as="geometry" />
        </mxCell>
        <mxCell id="vT0mGc1bMiAUVa-cbs3g-16" value="。&lt;br&gt;。&lt;br&gt;。" style="text;html=1;align=center;verticalAlign=middle;resizable=0;points=[];autosize=1;strokeColor=none;fillColor=none;" vertex="1" parent="1">
          <mxGeometry x="295" y="240" width="30" height="50" as="geometry" />
        </mxCell>
        <mxCell id="vT0mGc1bMiAUVa-cbs3g-17" value="男" style="rounded=1;whiteSpace=wrap;html=1;align=center;" vertex="1" parent="1">
          <mxGeometry x="290" y="375" width="40" height="20" as="geometry" />
        </mxCell>
        <mxCell id="vT0mGc1bMiAUVa-cbs3g-18" value="女" style="rounded=1;whiteSpace=wrap;html=1;align=center;" vertex="1" parent="1">
          <mxGeometry x="290" y="345" width="40" height="25" as="geometry" />
        </mxCell>
        <mxCell id="vT0mGc1bMiAUVa-cbs3g-26" value="计算机世界里面，“人”这一实体的数据结构&lt;br&gt;在编程过程中，我们一旦获取到这些数据，就能构造人这个实体的多种行为" style="text;html=1;align=center;verticalAlign=middle;resizable=0;points=[];autosize=1;strokeColor=none;fillColor=none;" vertex="1" parent="1">
          <mxGeometry x="35" y="395" width="410" height="30" as="geometry" />
        </mxCell>
      </root>
    </mxGraphModel>
  </diagram>
</mxfile>
